<svg width="20" height="20" viewBox="0 0 20 20" fill="none" xmlns="http://www.w3.org/2000/svg">
<path d="M10 0C4.48594 0 0 4.48594 0 9.99989C0 15.5138 4.48594 19.9998 10 19.9998C15.5141 19.9998 20 15.5138 20 9.99989C20 4.48594 15.5141 0 10 0ZM16.5166 4.71618C17.6392 6.09807 18.3304 7.84229 18.3879 9.74364C16.3083 9.31312 14.4252 9.36365 12.7629 9.68958C12.4619 8.98569 12.1503 8.31508 11.8358 7.6813C13.6462 6.90141 15.2223 5.90529 16.5166 4.71618ZM15.3901 3.57128C14.1053 4.74401 12.6164 5.61232 11.0918 6.25339C9.97281 4.2071 8.9022 2.66615 8.25 1.79046C8.81475 1.67015 9.39993 1.6056 10 1.6056C12.0506 1.6056 13.9307 2.34568 15.3901 3.57128ZM6.62835 2.31485C7.12084 2.95302 8.29389 4.55091 9.55396 6.82434C6.38708 7.8561 3.31417 8.02993 1.83756 8.04609C2.45304 5.47499 4.25356 3.36084 6.62835 2.31485ZM1.61438 9.65576C1.63022 9.65576 1.64553 9.65587 1.66169 9.65587C2.68199 9.65587 4.55134 9.58725 6.75209 9.18596C8.00766 8.957 9.19827 8.64883 10.3154 8.26692C10.6063 8.84654 10.8954 9.45795 11.1757 10.0988C9.61144 10.6024 8.29228 11.3271 7.24736 12.0466C5.49511 13.2533 4.26758 14.592 3.59729 15.4198C2.35627 13.9562 1.6056 12.0646 1.6056 9.99989C1.6056 9.8845 1.60967 9.77008 1.61438 9.65576ZM4.75429 16.5464C5.33134 15.8198 6.50589 14.4973 8.20494 13.3369C9.35958 12.5482 10.5541 11.9623 11.7839 11.5777C12.4975 13.4271 13.1066 15.4706 13.4698 17.6404C12.4114 18.1229 11.2372 18.3942 10 18.3942C8.01633 18.3942 6.19248 17.7011 4.75429 16.5464ZM14.947 16.7758C14.5726 14.7831 14.0144 12.9093 13.3691 11.1969C14.9565 10.9291 16.5971 10.9843 18.2821 11.3628C17.9187 13.5775 16.6864 15.5025 14.947 16.7758Z" fill="white"/>
</svg>
