<svg width="20" height="20" viewBox="0 0 20 20" fill="none" xmlns="http://www.w3.org/2000/svg">
<path d="M18.7734 12.4609C18.332 12.4609 17.9766 12.8164 17.9766 13.2578V17.9727H2.02344V13.2578C2.02344 12.8164 1.66797 12.4609 1.22656 12.4609C0.785156 12.4609 0.429688 12.8164 0.429688 13.2578V18.7734C0.429688 19.2148 0.785156 19.5703 1.22656 19.5703H18.7734C19.2148 19.5703 19.5703 19.2148 19.5703 18.7734V13.2578C19.5703 12.8164 19.2148 12.4609 18.7734 12.4609Z" fill="white"/>
<path d="M9.43751 13.7773C9.8711 14.1953 10.3906 13.9805 10.5664 13.7773L15.418 8.92969C15.7305 8.61719 15.7305 8.11328 15.418 7.80078C15.1055 7.48828 14.6016 7.48828 14.2891 7.80078L10.7969 11.2891V1.16406C10.7969 0.722656 10.4414 0.367188 10 0.367188C9.5586 0.367188 9.20313 0.722656 9.20313 1.16406V11.2852L5.71094 7.79688C5.39844 7.48438 4.89453 7.48438 4.58203 7.79688C4.26953 8.10938 4.26953 8.61328 4.58203 8.92578L9.43751 13.7773Z" fill="white"/>
</svg>
