<?xml version="1.0" encoding="UTF-8"?>
<svg width="427px" height="131px" viewBox="0 0 427 131" version="1.1" xmlns="http://www.w3.org/2000/svg" xmlns:xlink="http://www.w3.org/1999/xlink">
    <!-- Generator: Sketch 57.1 (83088) - https://sketch.com -->
    <title>logo</title>
    <desc>Created with Sketch.</desc>
    <defs>
        <linearGradient x1="50%" y1="0%" x2="50%" y2="100%" id="linearGradient-1">
            <stop stop-color="#8E22C3" offset="0%"></stop>
            <stop stop-color="#FD2DE7" offset="100%"></stop>
        </linearGradient>
    </defs>
    <g id="Home" stroke="none" stroke-width="1" fill="none" fill-rule="evenodd">
        <g id="Artboard" transform="translate(-1233.000000, -277.000000)">
            <g id="logo" transform="translate(1225.000000, 276.000000)">
                <g id="Group">
                    <path d="M72.5,3.46410162 L118.090689,29.7858984 C121.803502,31.9294919 124.090689,35.8910162 124.090689,40.1782032 L124.090689,92.8217968 C124.090689,97.1089838 121.803502,101.070508 118.090689,103.214102 L72.5,129.535898 C68.7871871,131.679492 64.2128129,131.679492 60.5,129.535898 L14.9093106,103.214102 C11.1964977,101.070508 8.90931065,97.1089838 8.90931065,92.8217968 L8.90931065,40.1782032 C8.90931065,35.8910162 11.1964977,31.9294919 14.9093106,29.7858984 L60.5,3.46410162 C64.2128129,1.32050808 68.7871871,1.32050808 72.5,3.46410162 Z" id="Polygon" fill="url(#linearGradient-1)"></path>
                    <g id="vector" transform="translate(37.000000, 37.000000)" fill="#FFFFFF" fill-rule="nonzero">
                        <path d="M31.5846299,14.89575 C30.9372787,13.6009879 29.0689754,13.588527 28.4154881,14.89575 L16.0254263,39.7000722 C15.7443489,40.2626954 15.7850591,40.9317067 16.1323349,41.4563593 L22.9199647,51.7121824 L22.9199647,58.2366596 C22.9199647,59.2104937 23.7124567,60 24.6899735,60 L35.3100265,60 C36.2875433,60 37.0800353,59.2104937 37.0800353,58.2366596 L37.0800353,51.7121824 L43.8676651,41.4563593 C44.2149409,40.9317067 44.2556511,40.2626954 43.9745737,39.7000722 L31.5846299,14.89575 Z M33.5400176,56.4733191 L26.4599824,56.4733191 L26.4599824,52.9466382 L33.5400176,52.9466382 L33.5400176,56.4733191 Z M34.3570537,49.4199574 L25.6430643,49.4199574 L19.6486344,40.3625004 L28.2299912,23.1828623 L28.2299912,40.4856991 C28.2299912,41.4595333 29.0224831,42.2490396 30,42.2490396 C30.9775169,42.2490396 31.7700088,41.4595333 31.7700088,40.4856991 L31.7700088,23.1828623 L40.3514836,40.3625004 L34.3570537,49.4199574 Z" id="Shape"></path>
                        <path d="M54.7265625,0 C52.4349609,0 50.4810937,1.47147733 49.7554687,3.52 L35.2734375,3.52 L35.2734375,1.76 C35.2734375,0.788010667 34.4864062,0 33.515625,0 L26.484375,0 C25.5135937,0 24.7265625,0.788010667 24.7265625,1.76 L24.7265625,3.52 L10.2445312,3.52 C9.51890625,1.47147733 7.56503906,0 5.2734375,0 C2.36566406,0 0,2.368608 0,5.28 C0,8.191392 2.36566406,10.56 5.2734375,10.56 C7.56503906,10.56 9.51890625,9.08734933 10.2445312,7.03882667 L16.8202734,7.03882667 C8.62933594,11.748704 3.515625,20.4496747 3.515625,29.92 C3.515625,30.8919893 4.30265625,31.68 5.2734375,31.68 C6.24421875,31.68 7.03125,30.8919893 7.03125,29.92 C7.03125,19.300864 14.5076953,10.0648533 24.7265625,7.65224533 L24.7265625,8.8 C24.7265625,9.77198933 25.5135937,10.56 26.484375,10.56 L33.515625,10.56 C34.4864062,10.56 35.2734375,9.77198933 35.2734375,8.8 L35.2734375,7.652128 C45.4923047,10.0648533 52.96875,19.300864 52.96875,29.92 C52.96875,30.8919893 53.7557812,31.68 54.7265625,31.68 C55.6973437,31.68 56.484375,30.8919893 56.484375,29.92 C56.484375,20.46176 51.3808594,11.755744 43.1797266,7.04 L49.7554687,7.04 C50.4810937,9.08852267 52.4349609,10.56 54.7265625,10.56 C57.6343359,10.56 60,8.191392 60,5.28 C60,2.368608 57.6343359,0 54.7265625,0 Z M5.2734375,7.04 C4.30417969,7.04 3.515625,6.250464 3.515625,5.28 C3.515625,4.309536 4.30417969,3.52 5.2734375,3.52 C6.24269531,3.52 7.03125,4.309536 7.03125,5.28 C7.03125,6.250464 6.24269531,7.04 5.2734375,7.04 Z M31.7578125,7.04 L28.2421875,7.04 L28.2421875,3.52 L31.7578125,3.52 L31.7578125,7.04 Z M54.7265625,7.04 C53.7573047,7.04 52.96875,6.250464 52.96875,5.28 C52.96875,4.309536 53.7573047,3.52 54.7265625,3.52 C55.6958203,3.52 56.484375,4.309536 56.484375,5.28 C56.484375,6.250464 55.6958203,7.04 54.7265625,7.04 Z" id="Shape"></path>
                    </g>
                </g>
                <text id="Portfolio" font-family="Montserrat-Bold, Montserrat" font-size="62" font-weight="bold" fill="#40403F">
                    <tspan x="155" y="89">Portfolio</tspan>
                </text>
            </g>
        </g>
    </g>
</svg>